{"title":"Snabba.Cash.2010.BRRip.H264.Feel-Free","uid":6002555,"size":1661644939,"categoryP":"video","categoryS":"movies","magnet":"?xt=urn:btih:ae6cfb3a798cfb22f3bb027e685332246258c575&amp;dn=Snabba.Cash.2010.BRRip.H264.Feel-Free&amp;tr=udp%3A%2F%2Ftracker.openbittorrent.com%3A80&amp;tr=udp%3A%2F%2Fopen.demonii.com%3A1337&amp;tr=udp%3A%2F%2Ftracker.coppersurfer.tk%3A6969&amp;tr=udp%3A%2F%2Fexodus.desync.com%3A6969","seeders":0,"leechers":1,"uploader":"hiest","files":12,"time":1291224862,"description":"Genre:Crime | Drama | Thriller \nLanguage:English.Swedish.Serbian.Spanish\nIMDb:http://www.imdb.com/title/tt1291652/ \nSource:720p BluRay DTS x264 \nSubtitles:Romana/English\n\nGeneral\nComplete name :Snabba.Cash.2010.BRRip.H264.Feel-Free.mp4\nFormat : MPEG-4\nFormat profile : Base Media\nCodec ID : mp42\nFile size : 1.55 GiB\nDuration : 2h 4mn\nOverall bit rate : 1 781 Kbps\nVideo #1\nCodec ID : avc1\nCodec ID/Info : Advanced Video Coding\nDuration : 2h 4mn\nBit rate mode : Variable\nBit rate : 1 299 Kbps\nWidth : 720 pixels\nHeight : 304 pixels\nDisplay aspect ratio : 2.35:1\nFrame rate mode : Constant\nFrame rate : 23.976 fps\nResolution : 24 bits\nColorimetry : 4:2:0\nScan type : Progressive\nBits/(Pixel*Frame) : 0.248\nStream size : 1.13 GiB (73%)\nAudio #2\nID : 2\nFormat : AAC\nFormat/Info : Advanced Audio Codec\nFormat version : Version 4\nFormat profile : LC\nFormat settings, SBR : No\nCodec ID : 40\nDuration : 2h 4mn\nBit rate mode : Constant\nBit rate : 477 Kbps\nNominal bit rate : 480 Kbps\nChannel(s) : 6 channels\nChannel positions : Front: L C R, Rear: L R, LFE\nSampling rate : 48.0 KHz\nResolution : 16 bits\nStream size : 424 MiB (27%)\n\nPlot:\nA three-tiered story centered around drugs and organized crime, and focused on a young man who becomes a runner for a coke dealer.\n\n\n\n\n\n\n================================== &lt;a href=&quot;\nhttp://thepiratebay.se/user/hiest&quot; rel=&quot;nofollow&quot; target=&quot;_NEW&quot;&gt;\nhttp://thepiratebay.se/user/hiest&lt;/a&gt;\n==================================","torrent":{"xt":"urn:btih:ae6cfb3a798cfb22f3bb027e685332246258c575","amp;dn":"Snabba.Cash.2010.BRRip.H264.Feel-Free","amp;tr":["udp%3A%2F%2Ftracker.openbittorrent.com%3A80","udp%3A%2F%2Fopen.demonii.com%3A1337","udp%3A%2F%2Ftracker.coppersurfer.tk%3A6969","udp%3A%2F%2Fexodus.desync.com%3A6969"],"infoHash":"ae6cfb3a798cfb22f3bb027e685332246258c575","infoHashBuffer":{"type":"Buffer","data":[174,108,251,58,121,140,251,34,243,187,2,126,104,83,50,36,98,88,197,117]},"announce":[],"urlList":[]}}